<?xml version="1.0" encoding="utf-8"?>
<!-- Generator: Adobe Illustrator 28.1.0, SVG Export Plug-In . SVG Version: 6.00 Build 0)  -->
<svg version="1.1"
	 id="レイヤー_1" xmlns:sodipodi="http://sodipodi.sourceforge.net/DTD/sodipodi-0.dtd" xmlns:inkscape="http://www.inkscape.org/namespaces/inkscape" xmlns:svg="http://www.w3.org/2000/svg"
	 xmlns="http://www.w3.org/2000/svg" xmlns:xlink="http://www.w3.org/1999/xlink" x="0px" y="0px" viewBox="0 0 100 100"
	 style="enable-background:new 0 0 100 100;" xml:space="preserve">
<style type="text/css">
	
		.st0{fill-rule:evenodd;clip-rule:evenodd;fill:#FFFFFF;stroke:#FFFFFF;stroke-width:3.2807;stroke-linecap:round;stroke-linejoin:round;}
	.st1{fill-rule:evenodd;clip-rule:evenodd;fill:#536C67;}
	.st2{fill-rule:evenodd;clip-rule:evenodd;fill:#38609C;}
	.st3{fill-rule:evenodd;clip-rule:evenodd;fill:#5FA6B9;}
</style>
<sodipodi:namedview  bordercolor="#666666" borderopacity="1.0" id="namedview45" inkscape:current-layer="レイヤー_1" inkscape:cx="50.057274" inkscape:cy="100" inkscape:pagecheckerboard="0" inkscape:pageopacity="0.0" inkscape:pageshadow="2" inkscape:window-height="1373" inkscape:window-maximized="1" inkscape:window-width="2560" inkscape:window-x="-9" inkscape:window-y="-9" inkscape:zoom="4.365" pagecolor="#ffffff" showgrid="false">
	</sodipodi:namedview>
<g id="g26">
</g>
<path id="path5107-7-4-3" inkscape:connector-curvature="0" inkscape:export-xdpi="270" inkscape:export-ydpi="270" class="st0" d="
	M24.2,20.7l0.6,2.4h18.6l-4.1,26l-11.1-3.2l0,0l-0.4-0.1c-1.3-0.4-2.7-0.6-4.1-0.6c-8.8,0-16,7.2-16,16s7.2,16,16,16
	c7.7,0,14.3-5.5,15.7-13l0.1-0.3l0,0l0,0l1.8-11.6L52,55.4l-0.9,5.5c0.2,0,0.3,0,0.5,0l0,0c0.7,0,1.3,0.2,1.9,0.5l0.8-5.2l23.1,6.7
	v-2.6l-22.7-6.6l2-12.5l-2-2.8L52.4,53l-10.7-3.1l4.2-26.8h1.5l0.4-2.5h-1h-3.3L24.2,20.7L24.2,20.7z M75.8,29l-2,1.2H56l-0.4,2.5
	h18.9l1.3-0.8V29z M59,35.4h-3l11.3,15.7c0.5-0.5,1.1-0.9,1.7-1.3c2.1-1.4,4.6-2.1,7.2-2.1c7.5,0,13.5,6.1,13.5,13.5
	c0,7.5-6.1,13.5-13.5,13.5c-7.5,0-13.5-6.1-13.5-13.5l0,0c0,0,0,0,0-0.1l-2.4-0.7c0,0.3,0,0.5,0,0.8c0,8.8,7.2,16,16,16
	s16-7.2,16-16s-7.2-16-16-16c-2.8,0-5.6,0.8-8,2.2L68,47.6L59,35.4L59,35.4z M23.7,47.7L23.7,47.7c1.1,0,2,0.1,3,0.4
	c0.3,0,0.3,0,0.4,0.1l11.8,3.4l-0.6,4l0,0l-1.4,8.7c-1.7,6.9-8,10.4-13.2,10.6c-7.5,0-13.5-6.1-13.5-13.5S16.2,47.7,23.7,47.7
	L23.7,47.7L23.7,47.7z M48.5,58.5L44,61l-0.2,1.1l2-1.2l0.4,0.4L45,62.2l-0.2,1.1l2.1-1.2l2.5,2.5l-0.1,0.1v0.1c0,0-0.1,0.1-0.1,0.2
	c-0.1,0.1-0.1,0.3-0.2,0.4c0,0.1,0,0.1-0.1,0.2c0,0.2-0.1,0.4-0.1,0.6l0,0c0,0.2,0,0.4,0.1,0.5c0,0.2,0.1,0.3,0.2,0.5
	c0.1,0.3,0.3,0.6,0.6,0.9c0.5,0.5,1.2,0.8,1.9,0.8c0.1,0,0.2,0,0.2,0l-1.1-1.1l0,0l0,0c0,0,0,0-0.1,0l0,0l-0.1-0.1l-0.1-0.1l0,0
	l-0.1-0.1c0,0,0,0-0.1-0.1l0,0c0,0,0,0-0.1-0.1l0,0L50,67.2c0,0,0-0.1-0.1-0.1c0,0,0,0,0-0.1v-0.1c0,0,0,0,0-0.1v-0.1v-0.1l0,0v-0.1
	l0,0c0-0.1,0-0.1,0-0.2s0-0.1,0-0.2c0-0.2,0.1-0.5,0.3-0.7l0.1-0.1l0.1-0.1c0.1-0.1,0.2-0.2,0.3-0.2l-0.8-0.8L47.7,62l1.6-0.9
	l0.2-1.1l-2.4,1.4L46.7,61l1.6-1L48.5,58.5L48.5,58.5L48.5,58.5z M51.6,63.4L51.6,63.4L51.6,63.4c-0.1,0-0.2,0.1-0.2,0.1l1.1,1.1
	l0,0l0,0l0,0l0,0l0,0c0,0,0,0,0.1,0l0.1,0.1l0,0l0.1,0.1l0,0l0.1,0.1l0,0c0,0,0,0,0.1,0.1l0,0c0,0,0,0,0,0.1l0,0l0,0l0.1,0.1
	c0,0,0,0.1,0.1,0.1c0,0,0,0,0,0.1v0.1c0,0,0,0,0,0.1v0.1v0.1l0,0l0,0v0.1l0,0c0,0.1,0,0.1,0,0.2s0,0.1,0,0.2c0,0.2-0.1,0.5-0.3,0.7
	l-0.1,0.1l0,0l-0.1,0.1c-0.1,0.1-0.2,0.2-0.3,0.2l2.9,3l-1.6,0.9l-0.2,1.1l2.4-1.4l0.4,0.4l-1.7,1l-0.2,1.1l4.5-2.6l0.2-1.1l-2,1.2
	l-0.4-0.4l1.2-0.7l0.2-1.1l-1.8,1.3l-2.5-2.5l0.1-0.1v-0.1c0,0,0.1-0.1,0.1-0.2l0,0c0.1-0.1,0.1-0.3,0.2-0.4c0-0.1,0-0.1,0.1-0.2
	c0-0.2,0.1-0.4,0.1-0.6l0,0c0-0.2,0-0.4-0.1-0.5c0-0.2-0.1-0.3-0.2-0.5c-0.1-0.3-0.3-0.6-0.6-0.9C53,63.7,52.4,63.5,51.6,63.4
	L51.6,63.4L51.6,63.4z M50.9,64.6L50.9,64.6C50.9,64.7,50.9,64.7,50.9,64.6L50.9,64.6L50.9,64.6z M52.3,67.6
	C52.3,67.6,52.2,67.6,52.3,67.6L52.3,67.6L52.3,67.6L52.3,67.6L52.3,67.6L52.3,67.6L52.3,67.6z"/>
<path id="path5107-7-8" inkscape:connector-curvature="0" inkscape:export-xdpi="270" inkscape:export-ydpi="270" class="st1" d="
	M48.5,58.5L44,61l-0.2,1.1l2-1.2l0.4,0.4L45,62.2l-0.2,1.1l2.1-1.2l2.5,2.5l-0.1,0.1v0.1c0,0-0.1,0.1-0.1,0.2
	c-0.1,0.1-0.1,0.3-0.2,0.4c0,0.1,0,0.1-0.1,0.2c0,0.2-0.1,0.4-0.1,0.6l0,0c0,0.2,0,0.4,0.1,0.5c0,0.2,0.1,0.3,0.2,0.5
	c0.1,0.3,0.3,0.6,0.6,0.9c0.5,0.5,1.2,0.8,1.9,0.8c0.1,0,0.2,0,0.2,0l-1.1-1.1l0,0l0,0c0,0,0,0-0.1,0l0,0l-0.1-0.1l-0.1-0.1l0,0
	l-0.1-0.1c0,0,0,0-0.1-0.1l0,0c0,0,0,0-0.1-0.1l0,0L50,67.2c0,0,0-0.1-0.1-0.1c0,0,0,0,0-0.1v-0.1c0,0,0,0,0-0.1v-0.1v-0.1l0,0v-0.1
	l0,0c0-0.1,0-0.1,0-0.2s0-0.1,0-0.2c0-0.2,0.1-0.5,0.3-0.7l0.1-0.1l0.1-0.1c0.1-0.1,0.2-0.2,0.3-0.2l-0.8-0.8L47.7,62l1.6-0.9
	l0.2-1.1l-2.4,1.4L46.7,61l1.6-1L48.5,58.5L48.5,58.5L48.5,58.5z"/>
<path id="path5105-2-6" inkscape:connector-curvature="0" inkscape:export-xdpi="270" inkscape:export-ydpi="270" class="st1" d="
	M51.6,63.4L51.6,63.4c-0.1,0-0.2,0.1-0.2,0.1l1.1,1.1l0,0l0,0l0,0l0,0l0,0c0,0,0,0,0.1,0l0.1,0.1l0,0l0.1,0.1l0,0l0.1,0.1l0,0
	c0,0,0,0,0.1,0.1l0,0c0,0,0,0,0,0.1l0,0l0,0l0.1,0.1c0,0,0,0.1,0.1,0.1c0,0,0,0,0,0.1v0.1c0,0,0,0,0,0.1v0.1v0.1l0,0l0,0v0.1l0,0
	c0,0.1,0,0.1,0,0.2s0,0.1,0,0.2c0,0.2-0.1,0.5-0.3,0.7l-0.1,0.1l0,0l-0.1,0.1c-0.1,0.1-0.2,0.2-0.3,0.2l2.9,3l-1.6,0.9l-0.2,1.1
	l2.4-1.4l0.4,0.4l-1.7,1l-0.2,1.1l4.5-2.6l0.2-1.1l-2,1.2l-0.4-0.4l1.2-0.7l0.2-1.1L56,70l-2.5-2.5l0.1-0.1v-0.1
	c0,0,0.1-0.1,0.1-0.2l0,0c0.1-0.1,0.1-0.3,0.2-0.4c0-0.1,0-0.1,0.1-0.2c0-0.2,0.1-0.4,0.1-0.6l0,0c0-0.2,0-0.4-0.1-0.5
	c0-0.2-0.1-0.3-0.2-0.5c-0.1-0.3-0.3-0.6-0.6-0.9C53,63.7,52.4,63.5,51.6,63.4L51.6,63.4L51.6,63.4z"/>
<path id="path5103-9-7" inkscape:connector-curvature="0" inkscape:export-xdpi="270" inkscape:export-ydpi="270" class="st1" d="
	M50.9,64.6L50.9,64.6C50.9,64.7,50.9,64.7,50.9,64.6L50.9,64.6L50.9,64.6L50.9,64.6L50.9,64.6z"/>
<path id="rect4927-7-3" inkscape:connector-curvature="0" inkscape:export-xdpi="270" inkscape:export-ydpi="270" class="st1" d="
	M52.3,67.6C52.3,67.6,52.2,67.6,52.3,67.6L52.3,67.6L52.3,67.6L52.3,67.6L52.3,67.6L52.3,67.6z"/>
<path id="path5115-1-9" inkscape:connector-curvature="0" inkscape:export-xdpi="270" inkscape:export-ydpi="270" class="st2" d="
	M24.2,20.7l0.6,2.5h18.6l-4.1,26L28.2,46l0,0l-0.4-0.1c-1.3-0.4-2.7-0.6-4.1-0.6c-8.8,0-16,7.2-16,16s7.2,16,16,16
	c7.7,0,14.3-5.5,15.7-13l0.1-0.3l0,0l0,0l1.8-11.6l10.7,3l-0.9,5.5c0.2,0,0.3,0,0.5,0l0,0c0.7,0,1.3,0.2,1.9,0.5l0.8-5.2l23.1,6.7
	v-2.6l-22.7-6.6l2-12.5l-2-2.8L52.4,53l-10.7-3.1l4.2-26.8h1.5l0.4-2.5h-1h-3.3L24.2,20.7L24.2,20.7z M23.7,47.7L23.7,47.7
	c1.1,0,2,0.1,3,0.4c0.3,0,0.3,0,0.4,0.1l11.8,3.4l-0.6,4l0,0l-1.4,8.7c-1.7,6.9-8,10.4-13.2,10.6c-7.5,0-13.5-6.1-13.5-13.5
	C10.2,53.8,16.2,47.7,23.7,47.7L23.7,47.7L23.7,47.7z"/>
<path id="path5113-0-5" inkscape:connector-curvature="0" inkscape:export-xdpi="270" inkscape:export-ydpi="270" class="st3" d="
	M75.8,29l-2,1.2H56l-0.4,2.5h18.9l1.3-0.8V29z"/>
<path id="path5111-1-9" inkscape:connector-curvature="0" inkscape:export-xdpi="270" inkscape:export-ydpi="270" class="st3" d="
	M55.9,35.4L55.9,35.4l11.4,15.7c0.5-0.5,1.1-0.9,1.7-1.3c2.1-1.4,4.6-2.1,7.2-2.1c7.5,0,13.5,6.1,13.5,13.5s-6.1,13.5-13.5,13.5
	c-7.5,0-13.5-6.1-13.5-13.5l0,0c0,0,0,0,0-0.1l-2.4-0.7c0,0.3,0,0.5,0,0.8c0,8.8,7.2,16,16,16s16-7.2,16-16s-7.2-16-16-16
	c-2.8,0-5.6,0.8-8,2.2L68,47.6l-9-12.2H55.9z"/>
</svg>
